<?xml version="1.0" encoding="UTF-8" standalone="no"?>
<!-- Created with Inkscape (http://www.inkscape.org/) -->

<svg
   width="200mm"
   height="200mm"
   viewBox="0 0 200 200"
   version="1.1"
   id="svg1"
   xml:space="preserve"
   xmlns:xlink="http://www.w3.org/1999/xlink"
   xmlns="http://www.w3.org/2000/svg"
   xmlns:svg="http://www.w3.org/2000/svg"><defs
     id="defs1"><linearGradient
       id="linearGradient1"><stop
         style="stop-color:#007c2f;stop-opacity:1;"
         offset="0"
         id="stop1" /><stop
         style="stop-color:#0dd354;stop-opacity:1;"
         offset="1"
         id="stop2" /></linearGradient><linearGradient
       xlink:href="#linearGradient1"
       id="linearGradient2"
       x1="159.46385"
       y1="233.86707"
       x2="50.53606"
       y2="66.132973"
       gradientUnits="userSpaceOnUse" /></defs><g
     id="layer1"
     transform="translate(-5,-50)"><rect
       style="fill:url(#linearGradient2);stroke-width:105.065;stroke-dasharray:none;paint-order:stroke fill markers"
       id="rect1"
       width="200"
       height="200"
       x="5"
       y="50" /><g
       style="fill:#1e1f22;fill-opacity:1"
       id="g39"
       transform="matrix(6.4362188,0,0,6.4362188,27.765374,72.561542)"><path
         fill-rule="evenodd"
         clip-rule="evenodd"
         d="M 5.46689,4.39207 C 5.75949,4.68526 5.75902,5.16013 5.46583,5.45273 3.78722,7.128 2.75,9.44218 2.75,12 c 0,2.5878 1.06163,4.9262 2.77503,6.6059 0.29579,0.29 0.30051,0.7648 0.01054,1.0606 C 5.24561,19.9623 4.77076,19.967 4.47497,19.677 2.48564,17.7269 1.25,15.0071 1.25,12 1.25,9.02783 2.45721,6.33616 4.40623,4.39102 4.69941,4.09842 5.17429,4.09889 5.46689,4.39207 Z M 18.6164,4.46446 C 18.9122,4.17449 19.387,4.17921 19.677,4.475 21.5771,6.41326 22.75,9.07043 22.75,12 c 0,2.9645 -1.2009,5.6499 -3.141,7.5938 -0.2926,0.2932 -0.7675,0.2937 -1.0606,0.0011 C 18.2552,19.3023 18.2547,18.8274 18.5473,18.5342 20.2182,16.86 21.25,14.5512 21.25,12 21.25,9.47873 20.2422,7.1943 18.6059,5.52507 18.3159,5.22928 18.3206,4.75443 18.6164,4.46446 Z M 8.30923,7.48757 C 8.59226,7.79001 8.57652,8.26462 8.27408,8.54765 7.32517,9.43564 6.75,10.6502 6.75,11.9822 c 0,1.3475 0.58869,2.5751 1.55756,3.4657 0.30495,0.2803 0.32492,0.7547 0.0446,1.0597 C 8.07185,16.8125 7.59739,16.8325 7.29244,16.5522 6.03967,15.4006 5.25,13.7824 5.25,11.9822 5.25,10.203 6.02148,8.60128 7.24916,7.45242 7.5516,7.16939 8.02621,7.18513 8.30923,7.48757 Z m 7.43367,0.03802 c 0.2863,-0.29933 0.761,-0.30988 1.0604,-0.02357 1.1972,1.14512 1.9467,2.72658 1.9467,4.48018 0,1.7746 -0.7675,3.3726 -1.9896,4.5208 -0.3018,0.2837 -0.7765,0.2689 -1.0601,-0.033 -0.2836,-0.3019 -0.2688,-0.7765 0.033,-1.0601 0.9445,-0.8874 1.5167,-2.0991 1.5167,-3.4277 0,-1.313 -0.5589,-2.51174 -1.4836,-3.39621 -0.2993,-0.28631 -0.3098,-0.76107 -0.0235,-1.0604 z"
         fill="#1c274c"
         id="path1"
         style="fill:#1e1f22;fill-opacity:1" /><polygon
         id="play-[#1001]"
         points="371,3613 378,3609 371,3605 "
         transform="matrix(0.61742087,0,0,0.61742087,-218.73079,-2216.2403)"
         style="mix-blend-mode:normal;fill:#1e1f22;fill-opacity:1;fill-rule:evenodd;stroke:#1e1f22;stroke-width:0.41249;stroke-linecap:round;stroke-linejoin:round;stroke-dasharray:none;stroke-opacity:1;paint-order:stroke fill markers" /></g></g></svg>
